<?xml version="1.0" encoding="UTF-8" standalone="no"?>
<!-- Generator: Adobe Illustrator 15.0.0, SVG Export Plug-In  -->

<svg
   xmlns:dc="http://purl.org/dc/elements/1.1/"
   xmlns:cc="http://creativecommons.org/ns#"
   xmlns:rdf="http://www.w3.org/1999/02/22-rdf-syntax-ns#"
   xmlns:svg="http://www.w3.org/2000/svg"
   xmlns="http://www.w3.org/2000/svg"
   xmlns:sodipodi="http://sodipodi.sourceforge.net/DTD/sodipodi-0.dtd"
   xmlns:inkscape="http://www.inkscape.org/namespaces/inkscape"
   version="1.1"
   x="0px"
   y="0px"
   width="50"
   height="50"
   viewBox="0.125 0.125 50 50"
   enable-background="new 0.125 0.125 50 49"
   xml:space="preserve"
   id="svg2"
   inkscape:version="0.91 r13725"
   sodipodi:docname="estudosLegislativos.svg"><metadata
     id="metadata34"><rdf:RDF><cc:Work
         rdf:about=""><dc:format>image/svg+xml</dc:format><dc:type
           rdf:resource="http://purl.org/dc/dcmitype/StillImage" /><dc:title></dc:title></cc:Work></rdf:RDF></metadata><sodipodi:namedview
     pagecolor="#ffffff"
     bordercolor="#666666"
     borderopacity="1"
     objecttolerance="10"
     gridtolerance="10"
     guidetolerance="10"
     inkscape:pageopacity="0"
     inkscape:pageshadow="2"
     inkscape:window-width="1535"
     inkscape:window-height="876"
     id="namedview32"
     showgrid="true"
     inkscape:zoom="6.8113143"
     inkscape:cx="-10.837404"
     inkscape:cy="27.283321"
     inkscape:window-x="65"
     inkscape:window-y="24"
     inkscape:window-maximized="1"
     inkscape:current-layer="g3361"><inkscape:grid
       type="xygrid"
       id="grid3345"
       empspacing="1" /></sodipodi:namedview><defs
     id="defs4" /><g
     id="g3376"
     transform="matrix(-1,0,0,1,50.25,1)"><g
       transform="translate(0.00700006,0)"
       id="g3361"><g
         id="g3368"><g
           transform="matrix(0.99999999,0,0,0.99920063,3.4202292e-7,0.01129113)"
           id="g3347"><path
             inkscape:connector-curvature="0"
             d="m 39.95576,19.129 c 1.195109,0 2.16224,-1.119825 2.16224,-2.500456 0,-1.380631 -0.96792,-2.499544 -2.16224,-2.499544 l -0.83776,0 0,4.999088 0.83776,0 z"
             id="path24"
             style="fill:#000000" /><rect
             x="16.118"
             y="14.125"
             width="22"
             height="5"
             id="rect26"
             style="fill:#000000" /><polygon
             points="11.542,13.646 8.801,13.646 8.801,19.128 11.542,19.128 15.329,19.128 15.329,13.646 "
             id="polygon28"
             style="fill:#000000"
             transform="matrix(1.0723039,0,0,0.91207588,-1.3193469,1.6788125)" /></g><g
           transform="matrix(-0.99999999,0,0,0.99920063,50.236,8.0112911)"
           id="g3352"><path
             style="fill:#000000"
             id="path3354"
             d="m 39.95576,19.129 c 1.195109,0 2.16224,-1.119825 2.16224,-2.500456 0,-1.380631 -0.96792,-2.499544 -2.16224,-2.499544 l -0.83776,0 0,4.999088 0.83776,0 z"
             inkscape:connector-curvature="0" /><rect
             style="fill:#000000"
             id="rect3356"
             height="5"
             width="22"
             y="14.125"
             x="16.118" /><polygon
             transform="matrix(1.0723039,0,0,0.91207588,-1.3193469,1.6788125)"
             style="fill:#000000"
             id="polygon3358"
             points="8.801,19.128 11.542,19.128 15.329,19.128 15.329,13.646 11.542,13.646 8.801,13.646 " /></g><g
           id="g3360"
           transform="matrix(0.99999999,0,0,0.99920063,3.4202291e-7,16.011291)"><path
             style="fill:#000000"
             id="path3362"
             d="m 39.95576,19.129 c 1.195109,0 2.16224,-1.119825 2.16224,-2.500456 0,-1.380631 -0.96792,-2.499544 -2.16224,-2.499544 l -0.83776,0 0,4.999088 0.83776,0 z"
             inkscape:connector-curvature="0" /><rect
             style="fill:#000000"
             id="rect3364"
             height="5"
             width="22"
             y="14.125"
             x="16.118" /><polygon
             transform="matrix(1.0723039,0,0,0.91207588,-1.3193469,1.6788125)"
             style="fill:#000000"
             id="polygon3366"
             points="8.801,13.646 8.801,19.128 11.542,19.128 15.329,19.128 15.329,13.646 11.542,13.646 " /></g></g></g></g></svg>