<?xml version="1.0" encoding="utf-8"?>
<!-- Generator: Adobe Illustrator 15.0.0, SVG Export Plug-In  -->
<!DOCTYPE svg PUBLIC "-//W3C//DTD SVG 1.1//EN" "http://www.w3.org/Graphics/SVG/1.1/DTD/svg11.dtd" [
	<!ENTITY ns_flows "http://ns.adobe.com/Flows/1.0/">
]>
<svg version="1.1"
	 xmlns="http://www.w3.org/2000/svg" xmlns:xlink="http://www.w3.org/1999/xlink" xmlns:a="http://ns.adobe.com/AdobeSVGViewerExtensions/3.0/"
	 x="0px" y="0px" width="50px" height="49px" viewBox="0.125 0.125 50 49" enable-background="new 0.125 0.125 50 49"
	 xml:space="preserve">
<defs>
</defs>
<rect x="0.125" y="0.125" fill="#0095DA" stroke="#0095DA" stroke-width="0.25" stroke-miterlimit="10" width="50" height="49"/>
<path fill="#FFFFFF" d="M38.694,27.365c1.515,0,2.741-1.227,2.741-2.741c0-1.514-1.227-2.741-2.741-2.741h-1.062v5.482H38.694z"/>
<rect x="15.33" y="21.883" fill="#FFFFFF" width="21.781" height="5.482"/>
<polygon fill="#FFFFFF" points="11.543,27.365 15.33,27.365 15.33,21.883 11.543,21.883 8.803,21.883 8.803,27.365 "/>
<polygon fill="#0095DA" points="37.11,28.743 37.633,28.743 37.633,27.365 37.633,21.883 37.633,20.506 37.11,20.506 37.11,21.883 
	37.11,27.365 "/>
<path fill="#FFFFFF" d="M11.556,30.123c-1.514,0-2.741,1.227-2.741,2.74c0,1.515,1.227,2.741,2.741,2.741h1.062v-5.481H11.556z"/>
<rect x="13.141" y="30.123" fill="#FFFFFF" width="21.78" height="5.481"/>
<polygon fill="#FFFFFF" points="38.708,30.123 34.921,30.123 34.921,35.604 38.708,35.604 41.448,35.604 41.448,30.123 "/>
<polygon fill="#0095DA" points="13.141,28.744 12.618,28.744 12.618,30.123 12.618,35.604 12.618,36.981 13.141,36.981 
	13.141,35.604 13.141,30.123 "/>
<path fill="#FFFFFF" d="M11.542,13.646c-1.514,0-2.741,1.228-2.741,2.742s1.227,2.741,2.741,2.741h1.062v-5.482H11.542z"/>
<rect x="13.127" y="13.646" fill="#FFFFFF" width="21.78" height="5.482"/>
<polygon fill="#FFFFFF" points="38.693,13.646 34.907,13.646 34.907,19.128 38.693,19.128 41.435,19.128 41.435,13.646 "/>
<polygon fill="#0095DA" points="13.127,12.268 12.604,12.268 12.604,13.646 12.604,19.128 12.604,20.506 13.127,20.506 
	13.127,19.128 13.127,13.646 "/>
</svg>
