<?xml version="1.0" encoding="utf-8"?>
<!-- Generator: Adobe Illustrator 15.0.0, SVG Export Plug-In  -->
<!DOCTYPE svg PUBLIC "-//W3C//DTD SVG 1.1//EN" "http://www.w3.org/Graphics/SVG/1.1/DTD/svg11.dtd" [
	<!ENTITY ns_flows "http://ns.adobe.com/Flows/1.0/">
]>
<svg version="1.1"
	 xmlns="http://www.w3.org/2000/svg" xmlns:xlink="http://www.w3.org/1999/xlink" xmlns:a="http://ns.adobe.com/AdobeSVGViewerExtensions/3.0/"
	 x="0px" y="0px" width="50px" height="49px" viewBox="0.125 0.125 50 49" enable-background="new 0.125 0.125 50 49"
	 xml:space="preserve">
<defs>
</defs>
<rect x="0.125" y="0.125" fill="#0095DA" stroke="#0095DA" stroke-width="0.25" stroke-miterlimit="10" width="50" height="49"/>
<path fill="#FFFFFF" d="M11.543,21.882c-1.515,0-2.741,1.227-2.741,2.741s1.227,2.741,2.741,2.741h1.062v-5.482H11.543z"/>
<rect x="13.127" y="21.882" fill="#FFFFFF" width="21.781" height="5.482"/>
<polygon fill="#FFFFFF" points="38.694,21.882 34.908,21.882 34.908,27.364 38.694,27.364 41.435,27.364 41.435,21.882 "/>
<polygon fill="#0095DA" points="13.127,20.504 12.605,20.504 12.605,21.882 12.605,27.364 12.605,28.741 13.127,28.741 
	13.127,27.364 13.127,21.882 "/>
<path fill="#FFFFFF" d="M38.707,35.603c1.515,0,2.741-1.227,2.741-2.74c0-1.515-1.227-2.741-2.741-2.741h-1.062v5.481H38.707z"/>
<rect x="15.342" y="30.121" fill="#FFFFFF" width="21.78" height="5.481"/>
<polygon fill="#FFFFFF" points="11.555,35.603 15.342,35.603 15.342,30.121 11.555,30.121 8.814,30.121 8.814,35.603 "/>
<polygon fill="#0095DA" points="37.122,36.981 37.646,36.981 37.646,35.603 37.646,30.121 37.646,28.744 37.122,28.744 
	37.122,30.121 37.122,35.603 "/>
<path fill="#FFFFFF" d="M38.693,19.128c1.515,0,2.741-1.228,2.741-2.742s-1.227-2.741-2.741-2.741h-1.062v5.482H38.693z"/>
<rect x="15.329" y="13.646" fill="#FFFFFF" width="21.781" height="5.482"/>
<polygon fill="#FFFFFF" points="11.542,19.128 15.329,19.128 15.329,13.646 11.542,13.646 8.801,13.646 8.801,19.128 "/>
<polygon fill="#0095DA" points="37.109,20.506 37.632,20.506 37.632,19.128 37.632,13.646 37.632,12.268 37.109,12.268 
	37.109,13.646 37.109,19.128 "/>
</svg>
