<?xml version="1.0" encoding="UTF-8" standalone="no"?>
<!-- Generator: Adobe Illustrator 15.0.0, SVG Export Plug-In  -->

<svg
   xmlns:dc="http://purl.org/dc/elements/1.1/"
   xmlns:cc="http://creativecommons.org/ns#"
   xmlns:rdf="http://www.w3.org/1999/02/22-rdf-syntax-ns#"
   xmlns:svg="http://www.w3.org/2000/svg"
   xmlns="http://www.w3.org/2000/svg"
   xmlns:xlink="http://www.w3.org/1999/xlink"
   xmlns:sodipodi="http://sodipodi.sourceforge.net/DTD/sodipodi-0.dtd"
   xmlns:inkscape="http://www.inkscape.org/namespaces/inkscape"
   version="1.1"
   x="0px"
   y="0px"
   width="151px"
   height="41px"
   viewBox="-0.5 20.703 151 41"
   enable-background="new -0.5 20.703 151 41"
   xml:space="preserve"
   id="svg2"
   inkscape:version="0.91 r13725"
   sodipodi:docname="logo.svg"><metadata
     id="metadata145"><rdf:RDF><cc:Work
         rdf:about=""><dc:format>image/svg+xml</dc:format><dc:type
           rdf:resource="http://purl.org/dc/dcmitype/StillImage" /><dc:title></dc:title></cc:Work></rdf:RDF></metadata><sodipodi:namedview
     pagecolor="#ffffff"
     bordercolor="#666666"
     borderopacity="1"
     objecttolerance="10"
     gridtolerance="10"
     guidetolerance="10"
     inkscape:pageopacity="0"
     inkscape:pageshadow="2"
     inkscape:window-width="1920"
     inkscape:window-height="1056"
     id="namedview143"
     showgrid="true"
     inkscape:zoom="7.2407734"
     inkscape:cx="76.801987"
     inkscape:cy="18.827627"
     inkscape:window-x="0"
     inkscape:window-y="24"
     inkscape:window-maximized="1"
     inkscape:current-layer="g3510" /><defs
     id="defs4" /><g
     id="g6"
     transform="matrix(0.9984884,0,0,1,0.22673954,0)"><defs
       id="defs8"><rect
         id="SVGID_1_"
         x="108.653"
         y="20.722"
         width="41.347"
         height="40.962002" /></defs><clipPath
       id="SVGID_2_"><use
         xlink:href="#SVGID_1_"
         overflow="visible"
         id="use12"
         style="overflow:visible"
         x="0"
         y="0"
         width="100%"
         height="100%" /></clipPath><polygon
       clip-path="url(#SVGID_2_)"
       points="158.654,7.71 155.769,24.095 109.615,16.866 112.019,0 "
       id="polygon14"
       style="clip-rule:evenodd;fill:#340e70;fill-rule:evenodd" /><polygon
       clip-path="url(#SVGID_2_)"
       points="155.769,23.613 155.769,24.577 109.135,17.349 109.615,16.385 "
       id="polygon16"
       style="clip-rule:evenodd;fill:#340e70;fill-rule:evenodd" /><polygon
       clip-path="url(#SVGID_2_)"
       points="155.769,24.095 155.769,25.059 109.135,17.83 109.615,16.866 "
       id="polygon18"
       style="clip-rule:evenodd;fill:#331372;fill-rule:evenodd" /><polygon
       clip-path="url(#SVGID_2_)"
       points="155.769,24.577 155.769,25.541 109.135,18.312 109.135,17.349 "
       id="polygon20"
       style="clip-rule:evenodd;fill:#321874;fill-rule:evenodd" /><polygon
       clip-path="url(#SVGID_2_)"
       points="155.769,25.059 155.769,26.023 109.135,18.794 109.135,17.83 "
       id="polygon22"
       style="clip-rule:evenodd;fill:#311c76;fill-rule:evenodd" /><polygon
       clip-path="url(#SVGID_2_)"
       points="155.769,25.541 155.288,26.505 109.135,19.276 109.135,18.312 "
       id="polygon24"
       style="clip-rule:evenodd;fill:#301f77;fill-rule:evenodd" /><polygon
       clip-path="url(#SVGID_2_)"
       points="155.769,26.023 155.288,26.986 109.135,19.758 109.135,18.794 "
       id="polygon26"
       style="clip-rule:evenodd;fill:#2e237a;fill-rule:evenodd" /><polygon
       clip-path="url(#SVGID_2_)"
       points="155.288,26.505 155.288,27.468 109.135,20.24 109.135,19.276 "
       id="polygon28"
       style="clip-rule:evenodd;fill:#2d267b;fill-rule:evenodd" /><polygon
       clip-path="url(#SVGID_2_)"
       points="155.288,26.986 155.288,27.951 108.653,20.722 109.135,19.758 "
       id="polygon30"
       style="clip-rule:evenodd;fill:#2a297d;fill-rule:evenodd" /><polygon
       clip-path="url(#SVGID_2_)"
       points="155.288,27.468 155.288,28.432 108.653,21.204 109.135,20.24 "
       id="polygon32"
       style="clip-rule:evenodd;fill:#282b7f;fill-rule:evenodd" /><polygon
       clip-path="url(#SVGID_2_)"
       points="155.288,27.951 155.288,28.914 108.653,21.686 108.653,20.722 "
       id="polygon34"
       style="clip-rule:evenodd;fill:#262e81;fill-rule:evenodd" /><polygon
       clip-path="url(#SVGID_2_)"
       points="155.288,28.432 155.288,29.396 108.653,22.167 108.653,21.204 "
       id="polygon36"
       style="clip-rule:evenodd;fill:#243082;fill-rule:evenodd" /><polygon
       clip-path="url(#SVGID_2_)"
       points="155.288,28.914 154.808,29.878 108.653,22.649 108.653,21.686 "
       id="polygon38"
       style="clip-rule:evenodd;fill:#203384;fill-rule:evenodd" /><polygon
       clip-path="url(#SVGID_2_)"
       points="155.288,29.396 154.808,30.36 108.653,23.131 108.653,22.167 "
       id="polygon40"
       style="clip-rule:evenodd;fill:#1d3586;fill-rule:evenodd" /><polygon
       clip-path="url(#SVGID_2_)"
       points="154.808,29.878 154.808,30.842 108.173,23.613 108.653,22.649 "
       id="polygon42"
       style="clip-rule:evenodd;fill:#183888;fill-rule:evenodd" /><polygon
       clip-path="url(#SVGID_2_)"
       points="154.808,30.36 154.808,31.324 108.173,24.095 108.653,23.131 "
       id="polygon44"
       style="clip-rule:evenodd;fill:#133a89;fill-rule:evenodd" /><polygon
       clip-path="url(#SVGID_2_)"
       points="154.808,30.842 154.808,31.806 108.173,24.577 108.173,23.613 "
       id="polygon46"
       style="clip-rule:evenodd;fill:#033c8b;fill-rule:evenodd" /><polygon
       clip-path="url(#SVGID_2_)"
       points="154.808,31.324 154.808,32.288 108.173,25.059 108.173,24.095 "
       id="polygon48"
       style="clip-rule:evenodd;fill:#003e8d;fill-rule:evenodd" /><polygon
       clip-path="url(#SVGID_2_)"
       points="154.808,31.806 154.327,32.77 108.173,25.541 108.173,24.577 "
       id="polygon50"
       style="clip-rule:evenodd;fill:#00408e;fill-rule:evenodd" /><polygon
       clip-path="url(#SVGID_2_)"
       points="154.808,32.288 154.327,33.251 108.173,26.023 108.173,25.059 "
       id="polygon52"
       style="clip-rule:evenodd;fill:#004290;fill-rule:evenodd" /><polygon
       clip-path="url(#SVGID_2_)"
       points="154.327,32.77 154.327,33.733 107.691,26.505 108.173,25.541 "
       id="polygon54"
       style="clip-rule:evenodd;fill:#004492;fill-rule:evenodd" /><polygon
       clip-path="url(#SVGID_2_)"
       points="154.327,33.251 154.327,34.215 107.691,26.986 108.173,26.023 "
       id="polygon56"
       style="clip-rule:evenodd;fill:#004693;fill-rule:evenodd" /><polygon
       clip-path="url(#SVGID_2_)"
       points="154.327,33.733 154.327,34.697 107.691,27.468 107.691,26.505 "
       id="polygon58"
       style="clip-rule:evenodd;fill:#004895;fill-rule:evenodd" /><polygon
       clip-path="url(#SVGID_2_)"
       points="154.327,34.215 154.327,35.179 107.691,27.951 107.691,26.986 "
       id="polygon60"
       style="clip-rule:evenodd;fill:#004a97;fill-rule:evenodd" /><polygon
       clip-path="url(#SVGID_2_)"
       points="154.327,34.697 153.846,35.661 107.691,28.432 107.691,27.468 "
       id="polygon62"
       style="clip-rule:evenodd;fill:#004c98;fill-rule:evenodd" /><polygon
       clip-path="url(#SVGID_2_)"
       points="154.327,35.179 153.846,36.143 107.691,28.914 107.691,27.951 "
       id="polygon64"
       style="clip-rule:evenodd;fill:#004e9a;fill-rule:evenodd" /><polygon
       clip-path="url(#SVGID_2_)"
       points="153.846,35.661 153.846,36.625 107.691,29.396 107.691,28.432 "
       id="polygon66"
       style="clip-rule:evenodd;fill:#004f9c;fill-rule:evenodd" /><polygon
       clip-path="url(#SVGID_2_)"
       points="153.846,36.143 153.846,37.106 107.211,29.878 107.691,28.914 "
       id="polygon68"
       style="clip-rule:evenodd;fill:#00519e;fill-rule:evenodd" /><polygon
       clip-path="url(#SVGID_2_)"
       points="153.846,36.625 153.846,37.588 107.211,30.36 107.691,29.396 "
       id="polygon70"
       style="clip-rule:evenodd;fill:#00539f;fill-rule:evenodd" /><polygon
       clip-path="url(#SVGID_2_)"
       points="153.846,37.106 153.846,38.07 107.211,30.842 107.211,29.878 "
       id="polygon72"
       style="clip-rule:evenodd;fill:#0055a1;fill-rule:evenodd" /><polygon
       clip-path="url(#SVGID_2_)"
       points="153.846,37.588 153.846,38.552 107.211,31.324 107.211,30.36 "
       id="polygon74"
       style="clip-rule:evenodd;fill:#0057a3;fill-rule:evenodd" /><polygon
       clip-path="url(#SVGID_2_)"
       points="153.846,38.07 153.365,39.034 107.211,31.806 107.211,30.842 "
       id="polygon76"
       style="clip-rule:evenodd;fill:#0059a5;fill-rule:evenodd" /><polygon
       clip-path="url(#SVGID_2_)"
       points="153.846,38.552 153.365,39.516 107.211,32.288 107.211,31.324 "
       id="polygon78"
       style="clip-rule:evenodd;fill:#005aa7;fill-rule:evenodd" /><polygon
       clip-path="url(#SVGID_2_)"
       points="153.365,39.034 153.365,39.998 106.73,32.77 107.211,31.806 "
       id="polygon80"
       style="clip-rule:evenodd;fill:#005ca9;fill-rule:evenodd" /><polygon
       clip-path="url(#SVGID_2_)"
       points="153.365,39.516 153.365,40.479 106.73,33.251 107.211,32.288 "
       id="polygon82"
       style="clip-rule:evenodd;fill:#005eaa;fill-rule:evenodd" /><polygon
       clip-path="url(#SVGID_2_)"
       points="153.365,39.998 153.365,40.962 106.73,33.733 106.73,32.77 "
       id="polygon84"
       style="clip-rule:evenodd;fill:#0060ad;fill-rule:evenodd" /><polygon
       clip-path="url(#SVGID_2_)"
       points="153.365,40.479 153.365,41.443 106.73,34.215 106.73,33.251 "
       id="polygon86"
       style="clip-rule:evenodd;fill:#0061ae;fill-rule:evenodd" /><polygon
       clip-path="url(#SVGID_2_)"
       points="153.365,40.962 152.885,41.926 106.73,34.697 106.73,33.733 "
       id="polygon88"
       style="clip-rule:evenodd;fill:#0063b1;fill-rule:evenodd" /><polygon
       clip-path="url(#SVGID_2_)"
       points="153.365,41.443 152.885,42.408 106.73,35.179 106.73,34.215 "
       id="polygon90"
       style="clip-rule:evenodd;fill:#0065b2;fill-rule:evenodd" /><polygon
       clip-path="url(#SVGID_2_)"
       points="152.885,41.926 152.885,42.89 106.25,35.661 106.73,34.697 "
       id="polygon92"
       style="clip-rule:evenodd;fill:#0067b4;fill-rule:evenodd" /><polygon
       clip-path="url(#SVGID_2_)"
       points="152.885,42.408 152.885,43.372 106.25,36.143 106.73,35.179 "
       id="polygon94"
       style="clip-rule:evenodd;fill:#0068b6;fill-rule:evenodd" /><polygon
       clip-path="url(#SVGID_2_)"
       points="152.885,42.89 152.885,43.854 106.25,36.625 106.25,35.661 "
       id="polygon96"
       style="clip-rule:evenodd;fill:#006ab8;fill-rule:evenodd" /><polygon
       clip-path="url(#SVGID_2_)"
       points="152.885,43.372 152.885,44.335 106.25,37.106 106.25,36.143 "
       id="polygon98"
       style="clip-rule:evenodd;fill:#006cbb;fill-rule:evenodd" /><polygon
       clip-path="url(#SVGID_2_)"
       points="152.885,43.854 152.403,44.817 106.25,37.588 106.25,36.625 "
       id="polygon100"
       style="clip-rule:evenodd;fill:#006dbc;fill-rule:evenodd" /><polygon
       clip-path="url(#SVGID_2_)"
       points="152.885,44.335 152.403,45.299 106.25,38.07 106.25,37.106 "
       id="polygon102"
       style="clip-rule:evenodd;fill:#006fbf;fill-rule:evenodd" /><polygon
       clip-path="url(#SVGID_2_)"
       points="152.403,44.817 152.403,45.781 106.25,38.552 106.25,37.588 "
       id="polygon104"
       style="clip-rule:evenodd;fill:#0071c1;fill-rule:evenodd" /><polygon
       clip-path="url(#SVGID_2_)"
       points="152.403,45.299 152.403,46.263 105.77,39.034 106.25,38.07 "
       id="polygon106"
       style="clip-rule:evenodd;fill:#0073c3;fill-rule:evenodd" /><polygon
       clip-path="url(#SVGID_2_)"
       points="152.403,45.781 152.403,46.745 105.77,39.516 106.25,38.552 "
       id="polygon108"
       style="clip-rule:evenodd;fill:#0074c5;fill-rule:evenodd" /><polygon
       clip-path="url(#SVGID_2_)"
       points="152.403,46.263 152.403,47.227 105.77,39.998 105.77,39.034 "
       id="polygon110"
       style="clip-rule:evenodd;fill:#0076c8;fill-rule:evenodd" /><polygon
       clip-path="url(#SVGID_2_)"
       points="152.403,46.745 151.923,47.708 105.77,40.479 105.77,39.516 "
       id="polygon112"
       style="clip-rule:evenodd;fill:#0078ca;fill-rule:evenodd" /><polygon
       clip-path="url(#SVGID_2_)"
       points="152.403,47.227 151.923,48.19 105.77,40.962 105.77,39.998 "
       id="polygon114"
       style="clip-rule:evenodd;fill:#007acc;fill-rule:evenodd" /><polygon
       clip-path="url(#SVGID_2_)"
       points="151.923,47.708 151.923,48.672 105.77,41.443 105.77,40.479 "
       id="polygon116"
       style="clip-rule:evenodd;fill:#007ccf;fill-rule:evenodd" /><polygon
       clip-path="url(#SVGID_2_)"
       points="151.923,48.19 151.923,49.154 105.288,41.926 105.77,40.962 "
       id="polygon118"
       style="clip-rule:evenodd;fill:#007ed1;fill-rule:evenodd" /><polygon
       clip-path="url(#SVGID_2_)"
       points="151.923,48.672 151.923,49.636 105.288,42.408 105.77,41.443 "
       id="polygon120"
       style="clip-rule:evenodd;fill:#007fd4;fill-rule:evenodd" /><polygon
       clip-path="url(#SVGID_2_)"
       points="151.923,49.154 151.923,50.118 105.288,42.89 105.288,41.926 "
       id="polygon122"
       style="clip-rule:evenodd;fill:#0081d6;fill-rule:evenodd" /><polygon
       clip-path="url(#SVGID_2_)"
       points="151.923,49.636 151.923,50.6 105.288,43.372 105.288,42.408 "
       id="polygon124"
       style="clip-rule:evenodd;fill:#0083d9;fill-rule:evenodd" /><polygon
       clip-path="url(#SVGID_2_)"
       points="151.923,50.118 151.441,51.082 105.288,43.854 105.288,42.89 "
       id="polygon126"
       style="clip-rule:evenodd;fill:#0085dc;fill-rule:evenodd" /><polygon
       clip-path="url(#SVGID_2_)"
       points="151.923,50.6 151.441,51.563 105.288,44.335 105.288,43.372 "
       id="polygon128"
       style="clip-rule:evenodd;fill:#0087de;fill-rule:evenodd" /><polygon
       clip-path="url(#SVGID_2_)"
       points="151.441,51.082 151.441,52.045 104.808,44.817 105.288,43.854 "
       id="polygon130"
       style="clip-rule:evenodd;fill:#0089e1;fill-rule:evenodd" /><polygon
       clip-path="url(#SVGID_2_)"
       points="151.441,51.563 149.038,67.948 102.403,60.72 105.288,44.335 "
       id="polygon132"
       style="clip-rule:evenodd;fill:#0089e1;fill-rule:evenodd" /></g><polygon
     points="150,61.684 150,53.973 108.653,54.455 108.653,61.684 "
     id="polygon134"
     transform="matrix(0.9992442,0,0,1,0.11336977,0)"
     style="clip-rule:evenodd;fill:#00a743;fill-rule:evenodd" /><rect
     y="20.722"
     width="106.73"
     height="40.962002"
     id="rect138"
     x="-0.17677669"
     style="clip-rule:evenodd;fill:#0074c5;fill-rule:evenodd" /><rect
     id="_x3C_Slice_x3E__1_"
     y="20.703"
     fill="none"
     width="150"
     height="41" /><path
     style="fill:#ffffff;fill-rule:evenodd"
     clip-path="none"
     d="m 144.65784,23.250387 0,27.697745 -2.74602,-0.01184 c -11.80405,-8.574988 -19.21575,-8.574988 -28.60957,0 -1.55103,-0.0038 -4.50444,-1.97e-4 -4.66433,0 l 0,3.532294 41.37074,0 0,-3.532294 -1.40833,0 0,-13.325498 1.40833,0 0,-0.862494 -1.40833,-0.004 0,-0.65079 1.40833,0 0,-0.462608 -1.4044,0 0,-12.380677 -3.94642,0 z"
     id="path11"
     inkscape:connector-curvature="0" /><g
     id="g3510"
     transform="translate(0.44194174,0)"
     style="fill:#ffffff"><path
       inkscape:connector-curvature="0"
       id="path13"
       d="m 72.132702,42.903108 0,0.0051 -4.418612,10.837274 1.460891,0 1.160491,-3.188793 4.136183,0 1.116848,3.188793 1.735617,0 -4.04377,-10.842409 -1.147648,0 z m -34.175547,0.0026 0,0.0026 0,10.837274 3.219604,0 c 3.841094,0 6.13367,-2.15209 6.13367,-5.743421 0,-2.602795 -1.518968,-5.09642 -5.887193,-5.09642 l -3.466081,0 z m -17.314992,0.0026 0,10.837274 1.501968,0 0,-4.552117 3.763905,0 0,-1.083471 -3.766473,0 0,-4.118215 3.84093,0 0,-1.083471 -5.34033,0 z m 8.534257,0 0,10.837274 6.005304,0 0,-1.080902 -4.505902,0 0,-4.092541 3.763905,0 0,-1.080904 -3.763905,0 0,-3.496889 3.83836,0 0,-1.083471 0.0026,-0.0026 -5.340329,0 z m 21.014711,0 0,10.837274 6.007867,0 0,-1.080902 -4.505897,0 0,-4.092541 3.763904,0 0,-1.080904 -3.763904,0 0,-3.496889 3.838359,0 0,-1.083471 0.0026,-0.0026 -5.342894,0 z m 8.898836,0 0,10.837274 1.50197,0.0026 0,-4.493066 1.594396,0 2.50841,4.680491 1.51994,-0.467279 -2.695838,-4.613737 c 1.03586,-0.666474 1.812636,-1.563381 1.812636,-3.160551 0,-1.873229 -1.378469,-2.7857 -3.142585,-2.7857 l -3.098929,0 z m 20.557699,0 0,10.837274 6.007881,0 0,-1.080902 -4.50591,0 0,-9.756372 -1.501971,0 z m -40.188543,1.083471 1.997489,0 c 2.848614,0 4.197808,1.563442 4.197808,3.979572 0,3.17462 -1.474141,4.693329 -4.52388,4.693329 l -1.671417,0 0,-8.672901 z m 21.132814,0 1.286306,0 c 1.00694,0 1.840873,0.511802 1.840873,1.84344 0,0.914922 -0.352915,2.341529 -2.274777,2.341529 l -0.852402,0 0,-4.184969 z m 11.88223,0.52633 0.03081,0 c 0.541592,1.952102 1.06946,3.454003 1.612366,4.955209 l -3.360813,0 c 0.587601,-1.501206 1.160268,-3.003107 1.717634,-4.955209 z"
       style="fill:#ffffff" /><path
       inkscape:connector-curvature="0"
       id="path3499"
       d="m 24.165311,28.252047 c -1.657071,0 -3.035289,1.075564 -3.035289,2.502166 0,1.501278 0.983967,2.154219 1.865936,2.836618 0.862655,0.636048 2.456899,1.502733 2.456899,2.836632 0,1.184542 -0.802785,1.742718 -1.850847,1.742705 -1.000424,0 -1.68413,-0.485069 -2.306016,-0.92541 l -0.653831,0.880154 c 0.757076,0.741626 1.970349,1.109002 2.987508,1.109002 1.699563,0 3.294308,-1.094737 3.294308,-2.776271 0,-1.3648 -0.851087,-2.337708 -2.306014,-3.399933 -1.3648,-0.984974 -2.016821,-1.543845 -2.016821,-2.303497 0,-0.817592 0.592533,-1.443456 1.652184,-1.443456 0.637335,0 1.318164,0.37962 1.835759,0.759447 l 0.696582,-0.759447 c -0.592362,-0.667927 -1.514523,-1.05871 -2.620358,-1.05871 z m 55.281499,0 c -3.064361,0 -5.308613,2.335672 -5.308613,5.308617 0,3.167363 2.031808,5.675761 5.308613,5.675761 l 0.0025,0 c 3.275517,0 5.308613,-2.507111 5.308613,-5.675761 -0.0025,-2.974232 -2.246768,-5.308617 -5.311128,-5.308617 z m -24.29992,0.178543 0,0.0026 -4.32535,10.617234 1.428371,0 1.134148,-3.125827 4.051244,0 1.091396,3.123317 1.699963,0 -3.960712,-10.617235 -1.11906,0 z m -25.082003,0.0026 0,10.617234 5.884489,0 0.0025,-1.058711 -4.413367,0 0,-4.008492 3.684094,0 0,-1.058697 -3.684094,0 0,-3.427589 3.759535,0 0,-1.061221 0,-0.0026 -5.233172,0 z m 8.602921,0 0,10.617234 1.214618,0 0,-8.449521 0.0327,0 c 0.63476,0.927033 4.59316,5.689087 6.900442,8.447011 l 1.15175,0.0025 0,-10.617235 -1.214618,0 0,8.464611 -0.03019,0 c -0.712012,-1.060916 -4.6277,-5.704077 -6.963308,-8.464589 l -1.091398,0 z m 24.005695,0 0,10.617234 3.158512,0 c 3.759634,0 6.005195,-2.107893 6.005195,-5.625469 0,-2.549342 -1.486552,-4.991752 -5.763781,-4.991765 l -3.399926,0 z m 16.773307,0.880166 c 2.622731,0 3.684091,2.260648 3.684091,4.249907 0,2.075525 -0.939044,4.609518 -3.684091,4.609518 -2.746336,0 -3.686607,-2.533993 -3.686607,-4.609518 0,-1.989259 1.062586,-4.249907 3.686607,-4.249907 z m -15.299671,0.181056 1.956467,0 c 2.788826,0 4.106569,1.533853 4.106569,3.900364 0.0025,3.109423 -1.436319,4.596937 -4.423426,4.596937 l -1.63961,0 0,-8.497301 z m -8.668303,0.515521 0.03018,0 c 0.531756,1.912005 1.046271,3.383078 1.576741,4.853455 l -3.291793,0 c 0.57682,-1.470377 1.138956,-2.94145 1.684875,-4.853455 z"
       style="fill:#ffffff" /></g></svg>